<?xml version="1.0" standalone="no"?>
<!DOCTYPE svg PUBLIC "-//W3C//DTD SVG 20010904//EN"
 "http://www.w3.org/TR/2001/REC-SVG-20010904/DTD/svg10.dtd">
<svg version="1.0" xmlns="http://www.w3.org/2000/svg"
 width="380.000000pt" height="380.000000pt" viewBox="0 0 380.000000 380.000000"
 preserveAspectRatio="xMidYMid meet">
<metadata>
Created by potrace 1.11, written by Peter Selinger 2001-2013
</metadata>
<g transform="translate(0.000000,380.000000) scale(0.100000,-0.100000)"
fill="#000000" stroke="none">
<path d="M2078 3624 c-16 -8 -28 -20 -28 -26 0 -6 -12 -26 -26 -45 -14 -19
-23 -40 -20 -48 2 -7 -9 -32 -25 -55 -38 -52 -63 -107 -89 -196 -16 -54 -27
-74 -45 -82 -20 -9 -24 -8 -28 6 -3 12 -5 10 -6 -6 -1 -28 -21 -36 -141 -55
-177 -29 -283 -55 -390 -97 -30 -12 -63 -24 -74 -27 -10 -3 -44 -21 -74 -40
-31 -18 -60 -33 -64 -33 -21 0 -132 -85 -223 -172 l-100 -95 -75 -6 c-84 -7
-173 -37 -209 -70 -21 -20 -23 -28 -19 -92 5 -69 26 -128 80 -217 21 -36 21
-42 10 -111 -13 -76 -7 -187 11 -198 6 -5 6 -24 -2 -55 -9 -34 -10 -110 -5
-276 4 -125 10 -228 13 -228 7 0 25 -40 36 -80 4 -13 45 -61 90 -106 73 -74
85 -82 119 -82 26 0 46 -7 63 -23 18 -18 37 -24 75 -26 53 -2 108 -19 108 -34
0 -5 18 -9 40 -9 22 0 40 -4 40 -9 0 -5 29 -40 65 -79 36 -38 65 -77 65 -86 0
-9 7 -19 15 -22 10 -4 15 -20 15 -45 l0 -39 50 0 c49 0 50 0 71 -45 12 -25 25
-45 31 -45 5 0 7 4 4 8 -7 12 56 12 70 0 6 -4 33 -6 58 -3 41 5 50 3 66 -17
23 -28 25 -38 6 -38 -26 0 -66 -84 -66 -137 0 -55 -12 -73 -50 -73 -18 0 -43
-17 -83 -58 -46 -46 -57 -64 -57 -90 0 -34 -5 -36 -63 -32 -15 1 -33 -3 -40
-8 -7 -5 -34 -12 -62 -15 -41 -4 -55 -11 -86 -45 -36 -38 -59 -92 -59 -139 l0
-23 1365 0 1365 0 0 1210 0 1210 -46 0 c-25 0 -61 -7 -80 -16 -36 -17 -114
-100 -114 -121 0 -7 -30 -44 -66 -83 -78 -82 -96 -86 -153 -35 -77 70 -151 36
-151 -70 0 -38 -4 -54 -15 -59 -18 -6 -17 -8 -39 89 -9 39 -21 72 -26 73 -6 2
-10 17 -10 34 0 68 -60 215 -128 312 -60 87 -172 194 -294 282 -115 83 -118
86 -118 123 0 42 -11 56 -53 66 -23 6 -27 12 -23 29 12 52 -53 261 -139 441
-33 68 -77 121 -122 144 -31 16 -113 13 -145 -5z"/>
</g>
</svg>
